<svg width="498" height="56" viewBox="0 0 498 56" fill="none" xmlns="http://www.w3.org/2000/svg">
<path fill-rule="evenodd" clip-rule="evenodd" d="M271.47 2.11628C268.721 3.35717 268.971 3.49246 273.527 3.22885C276.381 3.06409 278.753 2.54812 278.799 2.08333C278.94 0.623922 274.733 0.642994 271.47 2.11628ZM286.79 4.50356C287.593 5.28746 283.43 5.47821 270.473 5.24842C256.078 7.99434 253.077 3.16864 253.077 4.26125C253.077 6.02936 245.902 3.7812 226.463 2.04828C217.553 2.17055 205.056 2.73505 198.692 3.30304C192.328 3.87102 179.311 4.49538 169.764 4.69135C128.312 5.54289 122.378 2.84117 119.703 4.21126C117.94 5.11483 113.978 5.52674 108.104 5.41661C88.2734 5.04461 64.0574 1.60461 43.639 4.56939C17.3465 -1.90305 11.2184 -0.0542927 7.86972 4.75838C6.52284 6.69472 4.3197 9.83987 2.97282 11.7476C1.62594 13.6553 2.33692 28.9389 2.11012 33.4897C1.88333 38.0396 1.034 42.1655 0.224021 42.6563C-0.588273 43.148 0.87894 44.2345 3.48476 45.0696C6.29192 45.9705 7.7615 47.2452 7.09269 48.2017C5.76895 50.0999 14.7806 53.3734 25.139 54.7574C30.5891 55.4858 34.5371 55.3591 43.639 54.1642C55.4762 52.6094 64.43 52.8271 69.6833 54.7964C71.8702 55.6149 74.3765 55.673 79.3799 55.0201C84.0407 54.4113 87.5584 54.4261 90.7636 55.0695C96.6024 56.2402 106.551 56.2757 108.437 55.1328C109.224 54.6559 112.67 54.2197 116.095 54.1634L122.323 54.0601L115.38 53.4323C105.554 52.5426 111.032 51.9122 138.522 50.7684C174.513 49.2709 214.304 48.872 216.148 49.9906C217.678 50.9185 245.956 51.3399 281.354 50.9627C294.115 50.8265 296.663 50.5638 295.57 49.4963C294.448 48.4011 297.66 48.18 315.892 48.0985C342.964 47.978 359.522 48.0968 364.671 48.4506C371.243 48.9015 372.271 49.9213 366.282 50.0487C363.206 50.1138 367.457 50.4563 375.731 50.8092C393.041 51.5471 465.787 50.6141 470.177 49.5978C471.831 49.2145 472.502 48.1913 471.709 47.2556C470.482 45.8058 471.572 45.5777 480.294 45.4624C485.788 45.3895 491.833 45.2915 493.726 45.2439C495.617 45.1962 497.503 44.5024 497.913 43.7021C498.493 42.5756 496.283 42.1134 488.11 41.6547C482.305 41.3287 477.557 40.7468 477.557 40.3618C477.557 38.9189 485.45 38.3301 451.222 38.5217C457.087 38.6509 449.93 38.4099 449.93 37.8211C449.93 37.3129 450.709 36.8958 458.237 36.862C465.557 36.8282 449.313 36.6148 457.586 36.3885C465.86 36.1622 451.94 35.8917 455.988 35.7885C468.698 35.4616 467.351 34.3221 454.222 34.2952C444.577 34.2744 466.621 34.0646 469.736 33.3847C471.965 32.8982 453.986 32.658 459.117 32.8497C464.248 33.0422 468.964 32.8861 469.596 32.5029C471.565 31.3088 462.112 29.9855 451.603 29.9855C442.457 29.9855 465.295 29.7392 462.807 27.2687L460.07 24.5511L448.515 25.0991C455.363 25.4009 462.78 25.909 465.004 26.2281C468.274 26.699 468.793 26.451 467.73 24.9292C466.497 23.1602 467.265 23.0397 480.667 22.9096C489.438 22.8238 491.891 22.6329 487.047 22.4118C482.722 22.2141 476.619 21.4224 473.486 20.6532L467.791 19.2554L472.822 18.5573C481.59 17.3425 475.485 16.1111 460.642 16.1016C452.762 16.0964 441.17 15.5076 434.882 14.793C427.798 13.9875 452.626 13.801 451.286 14.3031C449.946 14.8052 463.153 14.5824 458.314 13.7169C447.014 11.6982 447.544 11.3678 464.965 9.57021C465.921 9.47135 454.45 9.34217 460.252 9.28234C472.286 9.15834 442.223 7.91397 430.14 7.06504C421.941 6.48838 419.578 5.35154 424.908 4.5451C426.56 4.29536 425.815 4.02048 423.172 3.90341C420.627 3.79155 462.94 3.57131 459.758 3.41522C456.576 3.25913 401.504 10.8802 394.823 10.5732C388.142 10.2671 382.673 9.6757 382.673 9.25947C382.673 8.84324 381.079 8.50246 379.13 8.50246C377.179 8.50246 374.988 7.91972 374.259 7.20692C373.528 6.49413 372.185 6.08397 371.273 6.29556C370.359 6.50627 366.823 6.13688 363.414 5.47437C360.006 4.81187 357.143 4.53872 357.055 4.86823C356.965 5.19775 356.122 4.73297 355.18 3.8346C353.31 2.05001 340.142 1.18545 334.088 2.44975C330.805 3.13567 314.131 7.44317 310.664 5.66725C309.879 5.26576 306.952 5.46087 304.159 6.10083C299.815 7.09631 298.681 7.06856 296.327 5.91005C292.77 4.15928 285.311 3.05976 286.79 4.50356ZM280.847 49.0628C280.847 49.5397 279.285 49.9299 277.376 49.9299C275.467 49.9299 273.905 49.5397 273.905 49.0628C273.905 48.5858 275.467 48.1956 277.376 48.1956C279.285 48.1956 280.847 48.5858 280.847 49.0628ZM47.1103 55.1328C47.1103 55.6097 48.7349 56 50.7182 56C52.7015 56 53.6827 55.6097 52.8959 55.1328C52.109 54.6559 50.4868 54.2657 49.288 54.2657C48.0892 54.2657 47.1103 54.6559 47.1103 55.1328ZM59.8386 55.1328C60.6254 55.6097 61.7269 56 62.2893 56C62.8517 56 63.3099 55.6097 63.3099 55.1328C63.3099 54.6559 62.206 54.2657 60.8591 54.2657C59.5123 54.2657 59.0517 54.6559 59.8386 55.1328Z" fill="#FFB703"/>
</svg>
