<svg width="687" height="213" viewBox="0 0 687 213" fill="none" xmlns="http://www.w3.org/2000/svg">
<path opacity="0.1" fill-rule="evenodd" clip-rule="evenodd" d="M-14.0967 5.99579C85.6247 -31.0661 162.411 120.029 266.885 140.109C328.946 152.038 383.427 86.4338 446.114 94.4523C533.855 105.676 669.234 106.626 685.24 193.623C702.776 288.93 560.894 333.377 504.584 412.245C475.782 452.586 461.984 497.774 437.364 540.796C395.927 613.207 392.39 730.116 311.346 749.926C234.509 768.707 188.264 659.814 121.051 618.112C53.8167 576.395 -42.3363 574.788 -81.6238 506.106C-121.92 435.66 -89.73 349.037 -78.8704 268.611C-66.5032 177.018 -100.73 38.1936 -14.0967 5.99579Z" fill="black"/>
</svg>
