<svg width="52" height="38" viewBox="0 0 52 38" fill="none" xmlns="http://www.w3.org/2000/svg">
<path d="M22.8 3.37276C19.3111 1.67407 15.4805 0.794119 11.6 0.799956C7.584 0.799956 3.7824 1.72796 0.4 3.37276V35.3728C3.88895 33.6742 7.71954 32.7942 11.6 32.8C16.9408 32.8 21.8976 34.432 26 37.232C30.2434 34.3367 35.263 32.7918 40.4 32.8C44.416 32.8 48.2176 33.728 51.6 35.3728V3.37276C48.1111 1.67407 44.2805 0.794119 40.4 0.799956C36.384 0.799956 32.5824 1.72796 29.2 3.37276V26.4C29.2 27.2486 28.8629 28.0626 28.2627 28.6627C27.6626 29.2628 26.8487 29.6 26 29.6C25.1513 29.6 24.3374 29.2628 23.7373 28.6627C23.1371 28.0626 22.8 27.2486 22.8 26.4V3.37276Z" fill="white"/>
</svg>
