<svg width="46" height="42" viewBox="0 0 46 42" fill="none" xmlns="http://www.w3.org/2000/svg">
<path d="M41.75 29.3333V4.33329H4.24998V29.3333H41.75ZM41.75 0.166626C42.855 0.166626 43.9149 0.605613 44.6963 1.38701C45.4777 2.16842 45.9166 3.22822 45.9166 4.33329V29.3333C45.9166 30.4384 45.4777 31.4982 44.6963 32.2796C43.9149 33.061 42.855 33.5 41.75 33.5H27.1666V37.6666H31.3333V41.8333H14.6666V37.6666H18.8333V33.5H4.24998C3.14491 33.5 2.0851 33.061 1.3037 32.2796C0.5223 31.4982 0.083313 30.4384 0.083313 29.3333V4.33329C0.083313 2.02079 1.93748 0.166626 4.24998 0.166626H41.75ZM8.41665 8.49996H27.1666V18.9166H8.41665V8.49996ZM29.25 8.49996H37.5833V12.6666H29.25V8.49996ZM37.5833 14.75V25.1666H29.25V14.75H37.5833ZM8.41665 21H16.75V25.1666H8.41665V21ZM18.8333 21H27.1666V25.1666H18.8333V21Z" fill="white"/>
</svg>
