<svg width="52" height="47" viewBox="0 0 52 47" fill="none" xmlns="http://www.w3.org/2000/svg">
<path d="M15.7221 46.2583V43.6889L20.861 38.55H5.44437C4.03118 38.55 2.82182 38.0472 1.81631 37.0417C0.809092 36.0345 0.305481 34.8243 0.305481 33.4111V5.14719C0.305481 3.734 0.809092 2.52379 1.81631 1.51656C2.82182 0.511055 4.03118 0.00830078 5.44437 0.00830078H46.5555C47.9687 0.00830078 49.1789 0.511055 50.1861 1.51656C51.1916 2.52379 51.6944 3.734 51.6944 5.14719V33.4111C51.6944 34.8243 51.1916 36.0345 50.1861 37.0417C49.1789 38.0472 47.9687 38.55 46.5555 38.55H31.1388L36.2777 43.6889V46.2583H15.7221Z" fill="white"/>
</svg>
