<svg width="42" height="42" viewBox="0 0 42 42" fill="none" xmlns="http://www.w3.org/2000/svg">
<path d="M41.625 16C41.2083 14.9583 39.9583 14.5417 38.9167 14.9583L32.875 17.875L28.5 13.5L24.125 9.125L27.0417 3.08333C27.4583 2.04167 27.0417 0.791667 26 0.375C24.9583 -0.0416665 23.7083 0.375 23.2917 1.41667L20.1667 7.875L6.83332 9.95833C5.99999 10.1667 5.37499 10.7917 5.16666 11.625L0.166657 35.7917C-0.0416768 36.4167 0.166656 37.25 0.791656 37.6667L4.33332 41.2083C4.74999 41.625 5.37499 41.8333 5.79166 41.8333H6.20832L30.375 36.8333C31.2083 36.625 31.8333 36 32.0417 35.1667L34.125 21.8333L40.5833 18.7083C41.625 18.2917 42.0417 17.0417 41.625 16ZM28.0833 33.0833L7.66666 37.25L15.375 29.5417C18.5 31 22.25 29.75 23.7083 26.625C25.1667 23.5 23.9167 19.75 20.7917 18.2917C18.5 17.25 15.5833 17.6667 13.7083 19.5417C11.8333 21.4167 11.4167 24.3333 12.4583 26.625L4.74999 34.3333L8.91666 13.9167L21 11.8333L25.5833 16.4167L30.1667 21L28.0833 33.0833ZM16 23.9167C16 23.2917 16.2083 22.875 16.625 22.4583C17.4583 21.625 18.7083 21.625 19.5417 22.4583C20.375 23.2917 20.375 24.5417 19.5417 25.375C18.7083 26.2083 17.4583 26.2083 16.625 25.375C16.2083 24.9583 16 24.3333 16 23.9167Z" fill="white"/>
</svg>
