<svg width="30" height="42" viewBox="0 0 30 42" fill="none" xmlns="http://www.w3.org/2000/svg">
<path d="M25.5 41.8333C27.7979 41.8333 29.6667 39.9645 29.6667 37.6666V4.33329C29.6667 2.03538 27.7979 0.166626 25.5 0.166626H4.66667C2.36875 0.166626 0.5 2.03538 0.5 4.33329V37.6666C0.5 39.9645 2.36875 41.8333 4.66667 41.8333H25.5ZM15.0833 31.4166C15.6359 31.4166 16.1658 31.6361 16.5565 32.0268C16.9472 32.4175 17.1667 32.9474 17.1667 33.5C17.1667 34.0525 16.9472 34.5824 16.5565 34.9731C16.1658 35.3638 15.6359 35.5833 15.0833 35.5833C14.5308 35.5833 14.0009 35.3638 13.6102 34.9731C13.2195 34.5824 13 34.0525 13 33.5C13 32.9474 13.2195 32.4175 13.6102 32.0268C14.0009 31.6361 14.5308 31.4166 15.0833 31.4166Z" fill="white"/>
</svg>
